:FULLY-SPECIFIED
:FORCE-ALL-JOINTS-BE-3DOF
:DEGREES
2039
root -3.24799 15.16 22.2835 898.414 -9.54318 173.103
lfemur -17.3834 10.0176 -23.2347
ltibia 55.9197 0 0
lfoot -25.0543 17.2207 0
ltoes -42.4105 0 0
rfemur -58.8138 -15.3769 18.9165
rtibia 64.6723 0 0
rfoot -1.29614 4.54416 0
rtoes -10.8435 0 0
lowerback 15.4906 -0.687673 -8.68256
upperback -0.497655 -2.41747 1.86991
thorax -8.83998 -0.750579 7.54312
lowerneck -2.87188 -3.60674 -6.08971
upperneck 6.96985 -4.72948 1.2171
head 2.92712 -2.52749 1.262
lclavicle 2.49338e-014 8.16909e-015 0
lhumerus -2.65096 -35.8154 85.3343
lradius 66.5094 0 0
lwrist -4.70664 0 0
lhand -26.1907 37.0989 0
lfingers 7.12502 0 0
lthumb 0.36603 -653.01 0
rclavicle 2.49338e-014 8.16909e-015 0
rhumerus 1.18332 16.5398 -68.6171
rradius 120.035 0 0
rwrist -48.72 0 0
rhand 41.899 -387.019 0
rfingers 7.12502 0 0
rthumb 63.8613 324.774 0
2040
root -3.23917 15.1206 22.1077 898.322 -10.5891 173.012
lfemur -16.68 9.38738 -23.1806
ltibia 55.8681 0 0
lfoot -25.4953 17.5071 0
ltoes -42.6544 0 0
rfemur -59.0976 -15.637 18.5961
rtibia 63.8041 0 0
rfoot -0.798636 4.65623 0
rtoes -10.0882 0 0
lowerback 15.4484 -0.535685 -8.88954
upperback -0.46487 -2.25703 1.77341
thorax -8.80778 -0.671942 7.52178
lowerneck -2.77386 -4.05249 -6.44046
upperneck 7.03283 -5.34659 1.58425
head 2.98241 -2.83262 1.39592
lclavicle 2.17233e-014 1.13094e-014 0
lhumerus -5.2545 -35.6132 86.192
lradius 68.6319 0 0
lwrist -2.13608 0 0
lhand -27.5625 37.9757 0
lfingers 7.12502 0 0
lthumb -0.953011 -652.239 0
rclavicle 2.17233e-014 1.13094e-014 0
rhumerus 3.67628 15.9167 -67.5154
rradius 116.904 0 0
rwrist -46.3223 0 0
rhand 40.7035 -387.175 0
rfingers 7.12502 0 0
rthumb 62.7434 324.255 0
2041
root -3.23034 15.0812 21.9318 898.242 -11.6502 172.927
lfemur -16.0108 8.70742 -23.0994
ltibia 55.8685 0 0
lfoot -25.9607 17.8868 0
ltoes -42.9081 0 0
rfemur -59.2343 -15.8908 18.178
rtibia 62.9589 0 0
rfoot -0.246091 4.6466 0
rtoes -9.16988 0 0
lowerback 15.3921 -0.368569 -9.09784
upperback -0.423976 -2.07511 1.66946
thorax -8.76394 -0.583934 7.48764
lowerneck -2.67146 -4.52109 -6.81286
upperneck 7.08608 -5.99709 1.9738
head 3.0431 -3.15346 1.53544
lclavicle 1.85119e-014 1.42024e-014 0
lhumerus -8.16701 -35.1088 87.1018
lradius 70.8583 0 0
lwrist 0.759808 0 0
lhand -29.2299 39.0623 0
lfingers 7.12502 0 0
lthumb -2.55626 -651.278 0
rclavicle 1.85119e-014 1.42024e-014 0
rhumerus 6.15852 15.2028 -66.39
rradius 113.165 0 0
rwrist -43.6176 0 0
rhand 38.9913 -387.46 0
rfingers 7.12502 0 0
rthumb 61.1477 323.408 0
2042
root -3.22152 15.0418 21.7559 898.174 -12.72 172.851
lfemur -15.3728 7.9844 -22.9936
ltibia 55.914 0 0
lfoot -26.4428 18.3496 0
ltoes -43.1698 0 0
rfemur -59.2383 -16.1366 17.6742
rtibia 62.1394 0 0
rfoot 0.351475 4.5265 0
rtoes -8.10861 0 0
lowerback 15.3229 -0.188446 -9.30595
upperback -0.376174 -1.87442 1.55911
thorax -8.70986 -0.487763 7.44165
lowerneck -2.56544 -5.00835 -7.20313
upperneck 7.12972 -6.675 2.38242
head 3.10818 -3.48712 1.67957
lclavicle 1.53147e-014 1.68588e-014 0
lhumerus -11.35 -34.3335 88.0561
lradius 73.1706 0 0
lwrist 3.93883 0 0
lhand -31.1501 40.3303 0
lfingers 7.12502 0 0
lthumb -4.40276 -650.153 0
rclavicle 1.53147e-014 1.68588e-014 0
rhumerus 8.62404 14.4096 -65.2478
rradius 108.886 0 0
rwrist -40.6437 0 0
rhand 36.8172 -387.861 0
rfingers 7.12502 0 0
rthumb 59.1249 322.264 0
